<svg width="44" height="10" viewBox="0 0 44 10" fill="none" xmlns="http://www.w3.org/2000/svg">
<path d="M4.746 0.401999C5.382 0.401999 5.96 0.512 6.48 0.732C7 0.947999 7.446 1.256 7.818 1.656C8.194 2.052 8.482 2.522 8.682 3.066C8.886 3.61 8.988 4.206 8.988 4.854C8.988 5.49 8.888 6.074 8.688 6.606C8.488 7.138 8.2 7.6 7.824 7.992C7.452 8.38 7.006 8.682 6.486 8.898C5.97 9.11 5.394 9.216 4.758 9.216C4.13 9.216 3.558 9.108 3.042 8.892C2.526 8.672 2.08 8.364 1.704 7.968C1.332 7.568 1.044 7.096 0.84 6.552C0.64 6.008 0.54 5.41 0.54 4.758C0.54 4.122 0.64 3.54 0.84 3.012C1.04 2.48 1.326 2.02 1.698 1.632C2.07 1.24 2.514 0.937999 3.03 0.726C3.546 0.51 4.118 0.401999 4.746 0.401999ZM7.554 5.634C7.554 5.106 7.5 4.606 7.392 4.134C7.288 3.662 7.14 3.232 6.948 2.844C6.76 2.452 6.536 2.114 6.276 1.83C6.016 1.542 5.73 1.32 5.418 1.164C5.106 1.008 4.776 0.93 4.428 0.93C3.944 0.93 3.518 1.054 3.15 1.302C2.786 1.546 2.502 1.896 2.298 2.352C2.094 2.804 1.992 3.348 1.992 3.984C1.992 4.516 2.044 5.02 2.148 5.496C2.252 5.968 2.398 6.4 2.586 6.792C2.778 7.18 3.002 7.518 3.258 7.806C3.518 8.09 3.804 8.31 4.116 8.466C4.428 8.622 4.756 8.7 5.1 8.7C5.592 8.7 6.02 8.578 6.384 8.334C6.752 8.086 7.038 7.734 7.242 7.278C7.45 6.818 7.554 6.27 7.554 5.634ZM12.0068 3.594V8.172C12.0068 8.28 12.0268 8.362 12.0668 8.418C12.1068 8.47 12.1668 8.506 12.2468 8.526L12.5108 8.592C12.6388 8.632 12.7028 8.698 12.7028 8.79C12.7028 8.93 12.6088 9 12.4208 9H10.2788C10.1868 9 10.1188 8.982 10.0748 8.946C10.0308 8.91 10.0088 8.862 10.0088 8.802C10.0088 8.75 10.0248 8.708 10.0568 8.676C10.0928 8.64 10.1448 8.612 10.2128 8.592L10.5008 8.526C10.5808 8.506 10.6408 8.47 10.6808 8.418C10.7208 8.362 10.7408 8.28 10.7408 8.172V4.452C10.7408 4.36 10.7248 4.294 10.6928 4.254C10.6648 4.214 10.6148 4.19 10.5428 4.182L10.1408 4.164C10.0688 4.152 10.0188 4.132 9.99075 4.104C9.96275 4.076 9.94875 4.038 9.94875 3.99C9.94875 3.938 9.96475 3.896 9.99675 3.864C10.0328 3.828 10.0948 3.794 10.1828 3.762L11.1788 3.414C11.3028 3.366 11.4048 3.332 11.4848 3.312C11.5648 3.292 11.6368 3.282 11.7008 3.282C11.8008 3.282 11.8768 3.31 11.9288 3.366C11.9808 3.422 12.0068 3.498 12.0068 3.594ZM11.8328 4.872L11.5988 4.632L11.8628 4.404C12.3388 3.972 12.7568 3.67 13.1168 3.498C13.4768 3.326 13.8208 3.24 14.1488 3.24C14.6568 3.24 15.0648 3.4 15.3728 3.72C15.6848 4.036 15.8408 4.466 15.8408 5.01V8.148C15.8408 8.264 15.8628 8.352 15.9068 8.412C15.9548 8.468 16.0208 8.508 16.1048 8.532L16.3568 8.592C16.4248 8.612 16.4748 8.64 16.5068 8.676C16.5428 8.708 16.5608 8.75 16.5608 8.802C16.5608 8.862 16.5388 8.91 16.4948 8.946C16.4548 8.982 16.3868 9 16.2908 9H14.1428C13.9548 9 13.8608 8.93 13.8608 8.79C13.8608 8.698 13.9228 8.632 14.0468 8.592L14.3288 8.526C14.4128 8.506 14.4748 8.466 14.5148 8.406C14.5548 8.346 14.5748 8.26 14.5748 8.148V5.202C14.5748 4.802 14.4748 4.504 14.2748 4.308C14.0788 4.108 13.8168 4.008 13.4888 4.008C13.2888 4.008 13.0708 4.06 12.8348 4.164C12.6028 4.264 12.3548 4.426 12.0908 4.65L11.8328 4.872ZM23.2276 0.827999C23.2276 0.76 23.2516 0.706 23.2996 0.666C23.3516 0.622 23.4156 0.599999 23.4916 0.599999H25.6576C25.7616 0.599999 25.8396 0.619999 25.8916 0.659999C25.9436 0.696 25.9696 0.744 25.9696 0.804C25.9696 0.872 25.9496 0.931999 25.9096 0.983999C25.8696 1.032 25.8036 1.07 25.7116 1.098L25.5016 1.152C25.3736 1.196 25.2556 1.266 25.1476 1.362C25.0396 1.454 24.9316 1.572 24.8236 1.716C24.7196 1.86 24.6036 2.034 24.4756 2.238L20.9476 7.734C20.8916 7.822 20.8396 7.908 20.7916 7.992C20.7436 8.072 20.7056 8.16 20.6776 8.256L20.5756 8.658C20.5436 8.758 20.4956 8.84 20.4316 8.904C20.3676 8.968 20.2776 9 20.1616 9H19.2196C19.1076 9 19.0276 8.962 18.9796 8.886C18.9356 8.806 18.9336 8.71 18.9736 8.598L19.0936 8.178C19.1336 8.078 19.1516 7.98 19.1476 7.884C19.1476 7.784 19.1456 7.686 19.1416 7.59C19.1456 7.502 19.1456 7.35 19.1416 7.134C19.1416 6.914 19.1396 6.654 19.1356 6.354C19.1316 6.05 19.1276 5.722 19.1236 5.37C19.1196 5.014 19.1136 4.654 19.1056 4.29C19.1016 3.926 19.0956 3.576 19.0876 3.24C19.0796 2.9 19.0716 2.592 19.0636 2.316C19.0596 2.036 19.0556 1.81 19.0516 1.638C19.0476 1.494 19.0256 1.382 18.9856 1.302C18.9456 1.218 18.8756 1.164 18.7756 1.14L18.5236 1.074C18.4516 1.054 18.3996 1.024 18.3676 0.983999C18.3356 0.939999 18.3196 0.889999 18.3196 0.834C18.3196 0.766 18.3496 0.71 18.4096 0.666C18.4736 0.622 18.5476 0.599999 18.6316 0.599999H21.1576C21.2336 0.599999 21.2916 0.618 21.3316 0.654C21.3756 0.69 21.3976 0.742 21.3976 0.81C21.3976 0.878 21.3776 0.934 21.3376 0.978C21.2976 1.022 21.2396 1.054 21.1636 1.074L20.7016 1.158C20.5776 1.182 20.4896 1.244 20.4376 1.344C20.3856 1.444 20.3596 1.588 20.3596 1.776C20.3596 1.956 20.3596 2.194 20.3596 2.49C20.3636 2.786 20.3676 3.12 20.3716 3.492C20.3796 3.864 20.3856 4.256 20.3896 4.668C20.3936 5.076 20.3976 5.488 20.4016 5.904C20.4096 6.316 20.4156 6.712 20.4196 7.092C20.4236 7.468 20.4256 7.808 20.4256 8.112L20.0056 8.256L23.8636 2.172C23.9796 1.992 24.0456 1.834 24.0616 1.698C24.0816 1.562 24.0636 1.448 24.0076 1.356C23.9516 1.264 23.8696 1.198 23.7616 1.158L23.4616 1.08C23.3056 1.016 23.2276 0.931999 23.2276 0.827999ZM26.9716 3.594V8.172C26.9716 8.28 26.9916 8.362 27.0316 8.418C27.0716 8.47 27.1316 8.506 27.2116 8.526L27.4816 8.586C27.5536 8.606 27.6056 8.634 27.6376 8.67C27.6736 8.706 27.6916 8.75 27.6916 8.802C27.6916 8.862 27.6696 8.91 27.6256 8.946C27.5816 8.982 27.5116 9 27.4156 9H25.2436C25.1516 9 25.0836 8.982 25.0396 8.946C24.9956 8.91 24.9736 8.862 24.9736 8.802C24.9736 8.75 24.9896 8.708 25.0216 8.676C25.0576 8.64 25.1096 8.612 25.1776 8.592L25.4656 8.526C25.5456 8.506 25.6056 8.47 25.6456 8.418C25.6856 8.362 25.7056 8.28 25.7056 8.172V4.452C25.7056 4.36 25.6896 4.294 25.6576 4.254C25.6296 4.214 25.5796 4.19 25.5076 4.182L25.1056 4.164C25.0336 4.152 24.9836 4.132 24.9556 4.104C24.9276 4.076 24.9136 4.038 24.9136 3.99C24.9136 3.938 24.9296 3.896 24.9616 3.864C24.9976 3.828 25.0596 3.794 25.1476 3.762L26.1436 3.414C26.2716 3.366 26.3756 3.332 26.4556 3.312C26.5356 3.292 26.6016 3.282 26.6536 3.282C26.7616 3.282 26.8416 3.31 26.8936 3.366C26.9456 3.422 26.9716 3.498 26.9716 3.594ZM26.2036 2.166C25.9436 2.166 25.7336 2.096 25.5736 1.956C25.4136 1.812 25.3336 1.626 25.3336 1.398C25.3336 1.174 25.4136 0.992 25.5736 0.852C25.7336 0.712 25.9436 0.642 26.2036 0.642C26.4676 0.642 26.6796 0.714 26.8396 0.857999C27.0036 0.998 27.0856 1.178 27.0856 1.398C27.0856 1.626 27.0036 1.812 26.8396 1.956C26.6796 2.096 26.4676 2.166 26.2036 2.166ZM33.8327 5.49C33.8327 5.674 33.7767 5.816 33.6647 5.916C33.5567 6.012 33.3987 6.06 33.1907 6.06H29.3567V5.676H32.2367C32.4367 5.676 32.5367 5.588 32.5367 5.412C32.5367 4.876 32.4207 4.458 32.1887 4.158C31.9567 3.858 31.6487 3.708 31.2647 3.708C30.9567 3.708 30.6867 3.796 30.4547 3.972C30.2227 4.144 30.0407 4.39 29.9087 4.71C29.7807 5.026 29.7167 5.398 29.7167 5.826C29.7167 6.622 29.9067 7.226 30.2867 7.638C30.6707 8.05 31.1707 8.256 31.7867 8.256C32.1827 8.256 32.5267 8.168 32.8187 7.992C33.1107 7.812 33.3167 7.574 33.4367 7.278C33.4887 7.214 33.5307 7.17 33.5627 7.146C33.5987 7.118 33.6367 7.104 33.6767 7.104C33.7327 7.104 33.7727 7.128 33.7967 7.176C33.8207 7.224 33.8327 7.28 33.8327 7.344C33.8087 7.672 33.6887 7.972 33.4727 8.244C33.2607 8.516 32.9747 8.734 32.6147 8.898C32.2587 9.058 31.8527 9.138 31.3967 9.138C30.8367 9.138 30.3407 9.02 29.9087 8.784C29.4807 8.548 29.1467 8.218 28.9067 7.794C28.6667 7.366 28.5467 6.864 28.5467 6.288C28.5467 5.7 28.6627 5.178 28.8947 4.722C29.1307 4.262 29.4627 3.9 29.8907 3.636C30.3227 3.372 30.8347 3.24 31.4267 3.24C31.9187 3.24 32.3447 3.336 32.7047 3.528C33.0647 3.716 33.3427 3.98 33.5387 4.32C33.7347 4.656 33.8327 5.046 33.8327 5.49ZM37.5525 9.072H37.1205C37.0205 9.072 36.9345 9.048 36.8625 9C36.7905 8.948 36.7325 8.862 36.6885 8.742L35.1405 4.218C35.0885 4.066 35.0385 3.966 34.9905 3.918C34.9425 3.866 34.8825 3.832 34.8105 3.816L34.5885 3.774C34.5125 3.754 34.4585 3.728 34.4265 3.696C34.3985 3.66 34.3845 3.616 34.3845 3.564C34.3845 3.5 34.4065 3.45 34.4505 3.414C34.4985 3.378 34.5645 3.36 34.6485 3.36H36.9765C37.0605 3.36 37.1265 3.378 37.1745 3.414C37.2225 3.446 37.2465 3.494 37.2465 3.558C37.2465 3.614 37.2285 3.66 37.1925 3.696C37.1605 3.728 37.1025 3.752 37.0185 3.768L36.7665 3.81C36.6065 3.834 36.5125 3.888 36.4845 3.972C36.4565 4.052 36.4825 4.214 36.5625 4.458L37.8345 8.334L37.5585 8.544L39.0525 4.158L39.4845 4.482L37.9785 8.778C37.9345 8.89 37.8745 8.966 37.7985 9.006C37.7225 9.05 37.6405 9.072 37.5525 9.072ZM41.2485 9.072H40.8285C40.7405 9.072 40.6565 9.046 40.5765 8.994C40.5005 8.942 40.4425 8.86 40.4025 8.748L38.8605 4.164C38.8165 4.036 38.7725 3.95 38.7285 3.906C38.6845 3.862 38.6265 3.832 38.5545 3.816L38.3205 3.774C38.2445 3.754 38.1905 3.728 38.1585 3.696C38.1305 3.66 38.1165 3.614 38.1165 3.558C38.1165 3.426 38.2065 3.36 38.3865 3.36H40.6005C40.7765 3.36 40.8645 3.428 40.8645 3.564C40.8645 3.616 40.8485 3.66 40.8165 3.696C40.7845 3.732 40.7305 3.754 40.6545 3.762L40.3665 3.804C40.2585 3.82 40.1925 3.872 40.1685 3.96C40.1485 4.048 40.1725 4.196 40.2405 4.404L41.5125 8.352L41.2425 8.574L42.5505 4.524C42.6385 4.268 42.6685 4.092 42.6405 3.996C42.6125 3.9 42.5105 3.838 42.3345 3.81L42.0825 3.768C42.0025 3.752 41.9445 3.728 41.9085 3.696C41.8765 3.66 41.8605 3.614 41.8605 3.558C41.8605 3.494 41.8825 3.446 41.9265 3.414C41.9745 3.378 42.0405 3.36 42.1245 3.36H43.7205C43.8005 3.36 43.8645 3.378 43.9125 3.414C43.9605 3.45 43.9845 3.5 43.9845 3.564C43.9845 3.612 43.9685 3.654 43.9365 3.69C43.9085 3.722 43.8525 3.748 43.7685 3.768L43.5465 3.804C43.4705 3.824 43.4045 3.876 43.3485 3.96C43.2925 4.04 43.2285 4.186 43.1565 4.398L41.6745 8.772C41.6345 8.884 41.5745 8.962 41.4945 9.006C41.4185 9.05 41.3365 9.072 41.2485 9.072Z" fill="black"/>
</svg>
